<?xml version="1.0" encoding="UTF-8" standalone="no"?>
<!-- Created with Inkscape (http://www.inkscape.org/) -->

<svg
   width="960"
   height="600"
   viewBox="0 0 253.99999 158.75"
   version="1.1"
   id="svg25181"
   inkscape:version="1.2 (dc2aedaf03, 2022-05-15)"
   sodipodi:docname="app.svg"
   xml:space="preserve"
   xmlns:inkscape="http://www.inkscape.org/namespaces/inkscape"
   xmlns:sodipodi="http://sodipodi.sourceforge.net/DTD/sodipodi-0.dtd"
   xmlns="http://www.w3.org/2000/svg"
   xmlns:svg="http://www.w3.org/2000/svg"><sodipodi:namedview
     id="namedview25183"
     pagecolor="#505050"
     bordercolor="#eeeeee"
     borderopacity="1"
     inkscape:showpageshadow="0"
     inkscape:pageopacity="0"
     inkscape:pagecheckerboard="0"
     inkscape:deskcolor="#505050"
     inkscape:document-units="mm"
     showgrid="false"
     inkscape:zoom="0.5"
     inkscape:cx="396"
     inkscape:cy="280"
     inkscape:window-width="1366"
     inkscape:window-height="745"
     inkscape:window-x="-8"
     inkscape:window-y="-8"
     inkscape:window-maximized="1"
     inkscape:current-layer="layer4" /><defs
     id="defs25178" /><g
     inkscape:label="Fundo"
     inkscape:groupmode="layer"
     id="layer1"><rect
       style="fill:#00153f;stroke-width:0.264583;fill-opacity:1"
       id="rect27532"
       width="254"
       height="158.75"
       x="-2.8421709e-14"
       y="-2.6645353e-14"
       inkscape:label="Fundo" /></g><g
     inkscape:groupmode="layer"
     id="layer4"
     inkscape:label="Barra Lateral"><rect
       style="fill:#183e89;fill-opacity:1;stroke-width:0.264583"
       id="rect32723"
       width="13.229167"
       height="158.75"
       x="0"
       y="-1.7763568e-14"
       inkscape:label="Barra lateral" /><rect
       style="fill:#56ff35;fill-opacity:1;stroke-width:0.264583"
       id="rect55761"
       width="13.229167"
       height="13.229167"
       x="-15.875"
       y="0"
       inkscape:label="title" /><rect
       style="fill:#ff3535;fill-opacity:1;stroke-width:0.264583"
       id="rect55761-4"
       width="13.229167"
       height="13.229167"
       x="-15.875"
       y="13.229167"
       inkscape:label="title" /><rect
       style="fill:#be35ff;fill-opacity:1;stroke-width:0.264583"
       id="rect55761-4-0"
       width="13.229167"
       height="13.229167"
       x="-15.874999"
       y="26.458334"
       inkscape:label="title" /><rect
       style="fill:#be35ff;fill-opacity:1;stroke-width:0.264583"
       id="rect55761-4-0-6"
       width="13.229167"
       height="13.229167"
       x="-15.875"
       y="138.90657"
       inkscape:label="title" /><path
       d="M 9.6796131,18.959632 7.5891306,16.794813 a 1.3802416,1.4291347 0 0 0 -1.9490948,0 L 3.5495536,18.959632 A 0.82075875,0.84983288 0 0 0 3.307295,19.564903 v 2.80148 a 0.82682201,0.85611102 0 0 0 0.826822,0.856111 h 4.9609328 a 0.82682201,0.85611102 0 0 0 0.8268219,-0.856111 v -2.80148 A 0.82075875,0.84983288 0 0 0 9.6796131,18.959632 Z M 7.4414055,22.651754 H 5.7877608 v -1.122648 a 0.82682235,0.85611127 0 0 1 1.6536447,0 z M 9.3706576,22.366383 A 0.27560736,0.28537034 0 0 1 9.0950498,22.651754 H 7.9926204 v -1.122648 a 1.3780369,1.4268519 0 0 0 -2.7560737,0 v 1.122648 H 4.134117 A 0.27560736,0.28537034 0 0 1 3.8585099,22.366383 v -2.80148 a 0.27781221,0.28765331 0 0 1 0.080753,-0.201757 l 2.0904815,-2.163964 a 0.82902691,0.85839398 0 0 1 1.1696775,0 l 2.0904826,2.16482 a 0.27781221,0.28765331 0 0 1 0.080753,0.200901 z"
       id="path34910"
       style="fill:#afafaf;fill-opacity:1;stroke-width:0.280446"
       inkscape:label="home_page_img" /><g
       id="g34951"
       transform="matrix(0.27560764,0,0,0.41341146,3.3072917,1.6536458)"
       inkscape:label="slide_bar_img"
       style="fill:#afafaf;fill-opacity:1"><rect
         y="11"
         width="24"
         height="2"
         rx="1"
         id="rect34937"
         x="0"
         style="fill:#afafaf;fill-opacity:1" /><rect
         y="4"
         width="24"
         height="2"
         rx="1"
         id="rect34939"
         x="0"
         style="fill:#afafaf;fill-opacity:1" /><rect
         y="18"
         width="24"
         height="2"
         rx="1"
         id="rect34941"
         x="0"
         style="fill:#afafaf;fill-opacity:1" /></g><g
       id="g35000"
       transform="matrix(0.27560764,0,0,0.27560169,3.3072917,142.21361)"
       inkscape:label="settings_img"
       style="fill:#afafaf;fill-opacity:1"><path
         d="m 1,4.75 h 2.736 a 3.728,3.728 0 0 0 7.195,0 H 23 a 1,1 0 0 0 0,-2 H 10.931 a 3.728,3.728 0 0 0 -7.195,0 H 1 a 1,1 0 0 0 0,2 z M 7.333,2 A 1.75,1.75 0 1 1 5.583,3.75 1.752,1.752 0 0 1 7.333,2 Z"
         id="path34986"
         style="fill:#afafaf;fill-opacity:1" /><path
         d="M 23,11 H 20.264 A 3.727,3.727 0 0 0 13.07,11 H 1 a 1,1 0 0 0 0,2 h 12.07 a 3.727,3.727 0 0 0 7.194,0 H 23 a 1,1 0 0 0 0,-2 z m -6.333,2.75 a 1.75,1.75 0 1 1 1.75,-1.75 1.752,1.752 0 0 1 -1.75,1.75 z"
         id="path34988"
         style="fill:#afafaf;fill-opacity:1" /><path
         d="M 23,19.25 H 10.931 a 3.728,3.728 0 0 0 -7.195,0 H 1 a 1,1 0 0 0 0,2 h 2.736 a 3.728,3.728 0 0 0 7.195,0 H 23 a 1,1 0 0 0 0,-2 z M 7.333,22 A 1.75,1.75 0 1 1 9.083,20.25 1.753,1.753 0 0 1 7.333,22 Z"
         id="path34990"
         style="fill:#afafaf;fill-opacity:1" /></g><g
       id="g54618"
       transform="matrix(0.27560764,0,0,0.27560764,3.3072917,29.765625)"
       style="fill:#afafaf;fill-opacity:1"
       inkscape:label="apps_img"><path
         d="M 7,0 H 4 A 4,4 0 0 0 0,4 v 3 a 4,4 0 0 0 4,4 H 7 A 4,4 0 0 0 11,7 V 4 A 4,4 0 0 0 7,0 Z M 9,7 A 2,2 0 0 1 7,9 H 4 A 2,2 0 0 1 2,7 V 4 A 2,2 0 0 1 4,2 h 3 a 2,2 0 0 1 2,2 z"
         id="path54601"
         style="fill:#afafaf;fill-opacity:1" /><path
         d="m 20,0 h -3 a 4,4 0 0 0 -4,4 v 3 a 4,4 0 0 0 4,4 h 3 A 4,4 0 0 0 24,7 V 4 A 4,4 0 0 0 20,0 Z m 2,7 A 2,2 0 0 1 20,9 H 17 A 2,2 0 0 1 15,7 V 4 a 2,2 0 0 1 2,-2 h 3 a 2,2 0 0 1 2,2 z"
         id="path54603"
         style="fill:#afafaf;fill-opacity:1" /><path
         d="M 7,13 H 4 a 4,4 0 0 0 -4,4 v 3 a 4,4 0 0 0 4,4 h 3 a 4,4 0 0 0 4,-4 V 17 A 4,4 0 0 0 7,13 Z m 2,7 A 2,2 0 0 1 7,22 H 4 A 2,2 0 0 1 2,20 v -3 a 2,2 0 0 1 2,-2 h 3 a 2,2 0 0 1 2,2 z"
         id="path54605"
         style="fill:#afafaf;fill-opacity:1" /><path
         d="m 20,13 h -3 a 4,4 0 0 0 -4,4 v 3 a 4,4 0 0 0 4,4 h 3 a 4,4 0 0 0 4,-4 v -3 a 4,4 0 0 0 -4,-4 z m 2,7 a 2,2 0 0 1 -2,2 h -3 a 2,2 0 0 1 -2,-2 v -3 a 2,2 0 0 1 2,-2 h 3 a 2,2 0 0 1 2,2 z"
         id="path54607"
         style="fill:#afafaf;fill-opacity:1" /></g><rect
       style="fill:#092965;fill-opacity:1;stroke-width:1.09085"
       id="rect58060"
       width="240.42665"
       height="6.6145835"
       x="13.229167"
       y="152.14072" /><rect
       style="fill:#07235a;fill-opacity:1;stroke-width:0.264583"
       id="rect60966"
       width="13.229167"
       height="6.6145835"
       x="0"
       y="152.13542" /><text
       xml:space="preserve"
       style="font-size:3.21561px;fill:#afafaf;fill-opacity:1;stroke-width:0.267968"
       x="2.0615726"
       y="144.02589"
       id="text66728"
       transform="scale(0.91982061,1.0871685)"><tspan
         sodipodi:role="line"
         id="tspan66726"
         style="fill:#afafaf;fill-opacity:1;stroke-width:0.267968"
         x="2.0615726"
         y="144.02589">v1.0.0</tspan></text><text
       xml:space="preserve"
       style="font-size:3.21561px;fill:#afafaf;fill-opacity:1;stroke-width:0.267968"
       x="261.10455"
       y="144.02589"
       id="text66728-1"
       transform="scale(0.91982061,1.0871685)"><tspan
         sodipodi:role="line"
         id="tspan66726-0"
         style="fill:#afafaf;fill-opacity:1;stroke-width:0.267968"
         x="261.10455"
         y="144.02589">05 2022</tspan></text><text
       xml:space="preserve"
       style="font-size:3.21561px;fill:#afafaf;fill-opacity:1;stroke-width:0.267968"
       x="16.659647"
       y="144.02589"
       id="text66728-7"
       transform="scale(0.91982061,1.0871685)"><tspan
         sodipodi:role="line"
         id="tspan66726-2"
         style="fill:#afafaf;fill-opacity:1;stroke-width:0.267968"
         x="16.659647"
         y="144.02589">Programa criado por João V. da Silva</tspan></text></g></svg>
