<?xml version="1.0" encoding="UTF-8" standalone="no"?>
<!-- Created with Inkscape (http://www.inkscape.org/) -->

<svg
   width="960"
   height="600"
   viewBox="0 0 253.99999 158.75"
   version="1.1"
   id="svg5"
   xml:space="preserve"
   inkscape:version="1.2 (dc2aedaf03, 2022-05-15)"
   sodipodi:docname="tela_login.svg"
   xmlns:inkscape="http://www.inkscape.org/namespaces/inkscape"
   xmlns:sodipodi="http://sodipodi.sourceforge.net/DTD/sodipodi-0.dtd"
   xmlns="http://www.w3.org/2000/svg"
   xmlns:svg="http://www.w3.org/2000/svg"><sodipodi:namedview
     id="namedview7"
     pagecolor="#505050"
     bordercolor="#eeeeee"
     borderopacity="1"
     inkscape:showpageshadow="0"
     inkscape:pageopacity="0"
     inkscape:pagecheckerboard="0"
     inkscape:deskcolor="#505050"
     inkscape:document-units="mm"
     showgrid="false"
     inkscape:zoom="0.71181884"
     inkscape:cx="488.88844"
     inkscape:cy="286.58977"
     inkscape:window-width="1366"
     inkscape:window-height="745"
     inkscape:window-x="-8"
     inkscape:window-y="-8"
     inkscape:window-maximized="1"
     inkscape:current-layer="layer3"
     inkscape:lockguides="false" /><defs
     id="defs2"><rect
       x="437.08731"
       y="408.27928"
       width="63.576336"
       height="16.887464"
       id="rect13346" /><rect
       x="434.10717"
       y="139.07324"
       width="94.371124"
       height="35.761689"
       id="rect9252" /></defs><g
     inkscape:label="Fundo"
     inkscape:groupmode="layer"
     id="layer1"><rect
       style="opacity:1;mix-blend-mode:normal;fill:#00153f;fill-opacity:1;stroke:none;stroke-width:0.264583;stroke-opacity:1"
       id="rect1535"
       width="254.98645"
       height="159.45947"
       x="-0.49322513"
       y="-0.35473633"
       inkscape:label="Fundo" /></g><g
     inkscape:groupmode="layer"
     id="layer2"
     inkscape:label="Tela de Login"><g
       inkscape:groupmode="layer"
       id="layer3"
       inkscape:label="Login"
       style="fill:#ffffff"><rect
         style="fill:#183e89;fill-opacity:1;stroke-width:0.264583;stroke:#000000;stroke-opacity:1"
         id="rect4707"
         width="89.958336"
         height="101.6"
         x="82.020828"
         y="28.575001"
         inkscape:label="login_window" /><rect
         style="opacity:1;fill:#ffffff;fill-opacity:1;stroke:#c2c2c2;stroke-width:0.264583;stroke-opacity:1"
         id="rect4918"
         width="70.908333"
         height="11.377084"
         x="91.54583"
         y="52.068573"
         inkscape:label="user_line" /><rect
         style="fill:#ffffff;fill-opacity:1;stroke:#c2c2c2;stroke-width:0.264583;stroke-opacity:1"
         id="rect4918-8"
         width="70.908333"
         height="11.377084"
         x="91.54583"
         y="69.218536"
         inkscape:label="password_line" /><rect
         style="fill:#0d81a5;fill-opacity:1;stroke:none;stroke-width:0.264583;stroke-opacity:1"
         id="rect4918-8-4"
         width="70.908333"
         height="11.377084"
         x="91.54583"
         y="103.94035"
         inkscape:label="password_line" /><text
         xml:space="preserve"
         transform="matrix(0.26458333,0,0,0.26458333,7.8481013,1.843326)"
         id="text9250"
         style="white-space:pre;shape-inside:url(#rect9252);display:inline;opacity:1;fill:#ffffff;fill-opacity:1;stroke:none;stroke-opacity:1"
         inkscape:label="Login_text"><tspan
           x="434.10742"
           y="150.02218"
           id="tspan20142">Login</tspan></text><g
         id="g10199"
         transform="matrix(0.22278329,0,0,0.21559801,93.768804,55.271976)"
         style="fill:#c2c2c2;fill-opacity:1"
         inkscape:label="user_img"><path
           d="M 12,12 A 6,6 0 1 0 6,6 6.006,6.006 0 0 0 12,12 Z M 12,2 A 4,4 0 1 1 8,6 4,4 0 0 1 12,2 Z"
           id="path10188"
           style="fill:#c2c2c2;fill-opacity:1" /><path
           d="m 12,14 a 9.01,9.01 0 0 0 -9,9 1,1 0 0 0 2,0 7,7 0 0 1 14,0 1,1 0 0 0 2,0 9.01,9.01 0 0 0 -9,-9 z"
           id="path10190"
           style="fill:#c2c2c2;fill-opacity:1" /></g><g
         id="g10236"
         transform="matrix(0.2005,0,0,0.21558333,94.036527,72.397711)"
         style="fill:#c2c2c2;fill-opacity:1"
         inkscape:label="password_img"><path
           d="M 19,8.424 V 7 A 7,7 0 0 0 5,7 V 8.424 A 5,5 0 0 0 2,13 v 6 a 5.006,5.006 0 0 0 5,5 h 10 a 5.006,5.006 0 0 0 5,-5 V 13 A 5,5 0 0 0 19,8.424 Z M 7,7 A 5,5 0 0 1 17,7 V 8 H 7 Z m 13,12 a 3,3 0 0 1 -3,3 H 7 A 3,3 0 0 1 4,19 v -6 a 3,3 0 0 1 3,-3 h 10 a 3,3 0 0 1 3,3 z"
           id="path10225"
           style="fill:#c2c2c2;fill-opacity:1" /><path
           d="m 12,14 a 1,1 0 0 0 -1,1 v 2 a 1,1 0 0 0 2,0 v -2 a 1,1 0 0 0 -1,-1 z"
           id="path10227"
           style="fill:#c2c2c2;fill-opacity:1" /></g><text
         xml:space="preserve"
         transform="matrix(0.26458333,0,0,0.26458333,7.0595189,-0.20062687)"
         id="text13344"
         style="white-space:pre;shape-inside:url(#rect13346);display:inline;opacity:1;fill:#ffffff;fill-opacity:1;stroke:none;stroke-opacity:1"
         inkscape:label="Login_button_text"><tspan
           x="437.08789"
           y="419.22726"
           id="tspan20144">Login</tspan></text><text
         xml:space="preserve"
         style="font-size:3.175px;white-space:pre;inline-size:16.7403;display:inline;opacity:1;fill:#b4b4b4;fill-opacity:1;stroke:none;stroke-width:0.264583;stroke-opacity:1"
         x="102.89867"
         y="58.480091"
         id="text21496"
         transform="matrix(0.9618345,0,0,1.2613485,2.7479508,-14.909001)"
         inkscape:label="user_txt"><tspan
           x="102.89867"
           y="58.480091"
           id="tspan20146">Username</tspan></text><text
         xml:space="preserve"
         style="font-size:3.175px;white-space:pre;inline-size:16.7403;display:inline;fill:#c2c2c2;fill-opacity:1;stroke:none;stroke-width:0.264583;stroke-opacity:1"
         x="102.89867"
         y="58.480091"
         id="text21496-4"
         transform="matrix(0.9618345,0,0,1.2613485,2.7691323,2.5931857)"
         inkscape:label="password_txt"><tspan
           x="102.89867"
           y="58.480091"
           id="tspan20148">Password
</tspan></text><text
         xml:space="preserve"
         style="font-size:2.82222px;opacity:1;fill:#f3f6fd;fill-opacity:1;stroke:none;stroke-width:0.264583;stroke-opacity:1"
         x="90.144356"
         y="121.45568"
         id="text43077"
         inkscape:label="registrar_txt"><tspan
           sodipodi:role="line"
           id="tspan43075"
           style="font-size:2.82222px;fill:#f3f6fd;fill-opacity:1;stroke-width:0.264583"
           x="90.144356"
           y="121.45568">Registrar</tspan></text><text
         xml:space="preserve"
         style="font-size:2.82222px;white-space:pre;inline-size:32.14;display:inline;fill:#f3f6fd;fill-opacity:1;stroke:none;stroke-width:0.264583;stroke-opacity:1"
         x="133.53697"
         y="123.12199"
         id="text43077-1"
         transform="translate(1.0583331,-1.5875)"
         inkscape:label="esqueci_txt"><tspan
           x="133.53697"
           y="123.12199"
           id="tspan20150">Esqueci minha senha</tspan></text><rect
         style="opacity:1;fill:#939393;fill-opacity:1;stroke:none;stroke-width:0.264583;stroke-opacity:1"
         id="rect43875"
         width="0.55755055"
         height="6.6906066"
         x="126.72122"
         y="118.7583"
         inkscape:label="separador" /></g></g></svg>
